<svg xmlns="http://www.w3.org/2000/svg" id="calendar" width="16" height="16" viewBox="0 0 16 16">
    <defs>
        <style>
            .cls-1{fill:#4a4a4a}
        </style>
    </defs>
    <g id="Group_128">
        <g id="Group_127">
            <circle id="Ellipse_1" cx=".625" cy=".625" r=".625" class="cls-1" transform="translate(11.438 5.938)"/>
            <path id="Path_92" d="M13.5 1.25h-.812V.625a.625.625 0 0 0-1.25 0v.625H8.594V.625a.625.625 0 0 0-1.25 0v.625H4.531V.625a.625.625 0 0 0-1.25 0v.625H2.5A2.5 2.5 0 0 0 0 3.75v9.75A2.5 2.5 0 0 0 2.5 16h4.781a.625.625 0 0 0 0-1.25H2.5a1.251 1.251 0 0 1-1.25-1.25V3.75A1.251 1.251 0 0 1 2.5 2.5h.781v.625a.625.625 0 0 0 1.25 0V2.5h2.813v.625a.625.625 0 0 0 1.25 0V2.5h2.844v.625a.625.625 0 0 0 1.25 0V2.5h.812a1.251 1.251 0 0 1 1.25 1.25v3.563a.625.625 0 0 0 1.25 0V3.75a2.5 2.5 0 0 0-2.5-2.5z" class="cls-1"/>
            <path id="Path_93" d="M273.781 270a3.781 3.781 0 1 0 3.781 3.781 3.786 3.786 0 0 0-3.781-3.781zm0 6.313a2.531 2.531 0 1 1 2.531-2.531 2.534 2.534 0 0 1-2.531 2.531z" class="cls-1" transform="translate(-261.563 -261.563)"/>
            <path id="Path_94" d="M372.531 331.281h-.281v-.656a.625.625 0 0 0-1.25 0v1.281a.625.625 0 0 0 .625.625h.906a.625.625 0 0 0 0-1.25z" class="cls-1" transform="translate(-359.406 -319.688)"/>
            <circle id="Ellipse_2" cx=".625" cy=".625" r=".625" class="cls-1" transform="translate(8.719 5.938)"/>
            <circle id="Ellipse_3" cx=".625" cy=".625" r=".625" class="cls-1" transform="translate(6 8.656)"/>
            <circle id="Ellipse_4" cx=".625" cy=".625" r=".625" class="cls-1" transform="translate(3.281 5.938)"/>
            <circle id="Ellipse_5" cx=".625" cy=".625" r=".625" class="cls-1" transform="translate(3.281 8.656)"/>
            <circle id="Ellipse_6" cx=".625" cy=".625" r=".625" class="cls-1" transform="translate(3.281 11.375)"/>
            <circle id="Ellipse_7" cx=".625" cy=".625" r=".625" class="cls-1" transform="translate(6 11.375)"/>
            <circle id="Ellipse_8" cx=".625" cy=".625" r=".625" class="cls-1" transform="translate(6 5.938)"/>
        </g>
    </g>
</svg>
