<svg xmlns="http://www.w3.org/2000/svg" id="calendar_active" width="16.108" height="16.199" viewBox="0 0 16.108 16.199">
    <defs>
        <style>
            .cls-1{fill:#fff}
        </style>
    </defs>
    <g id="Group_601">
        <g id="Group_600">
            <path id="Path_776" d="M16.107 2.416a.805.805 0 0 0-.805-.805h-2.416V0h-1.611v1.611H8.859V0H7.248v1.611H4.832V0H3.221v1.611H.805A.805.805 0 0 0 0 2.416v1.611h16.107z" class="cls-1"/>
            <path id="Exclusion_3" d="M-31.052-2673.633l-8.143-.092a.806.806 0 0 1-.8-.805V-2685h16.107v3.94l-.166-.163a5.475 5.475 0 0 0-2.447-1.635 7.306 7.306 0 0 0-1.728-.214 5.643 5.643 0 0 0-3.2.932 3.894 3.894 0 0 0-1.616 2.127 5.621 5.621 0 0 0 .074 4.3 3.935 3.935 0 0 0 1.922 2.075zm-3.323-3.824a.626.626 0 0 0-.625.625.626.626 0 0 0 .625.625.625.625 0 0 0 .625-.625.625.625 0 0 0-.625-.625zm-3 0a.625.625 0 0 0-.625.625.625.625 0 0 0 .625.625.626.626 0 0 0 .625-.625.626.626 0 0 0-.625-.625zm3-3a.626.626 0 0 0-.625.625.626.626 0 0 0 .625.625.625.625 0 0 0 .625-.625.626.626 0 0 0-.625-.626zm-3 0a.626.626 0 0 0-.625.625.625.625 0 0 0 .625.625.626.626 0 0 0 .625-.625.626.626 0 0 0-.625-.626zm3-3a.626.626 0 0 0-.625.625.626.626 0 0 0 .625.625.626.626 0 0 0 .625-.625.625.625 0 0 0-.625-.625zm-3 0a.625.625 0 0 0-.625.625.626.626 0 0 0 .625.625.626.626 0 0 0 .625-.625.626.626 0 0 0-.625-.625z" class="cls-1" transform="translate(40 2689.832)"/>
            <path id="Exclusion_2" d="M-35.779-2676.557a4.226 4.226 0 0 1-4.221-4.222 4.226 4.226 0 0 1 4.221-4.221 4.233 4.233 0 0 1 4.222 4.221 4.227 4.227 0 0 1-4.222 4.222zm-.261-5.8a.625.625 0 0 0-.625.625v1.281a.625.625 0 0 0 .625.625h.906a.626.626 0 0 0 .625-.625.626.626 0 0 0-.625-.625h-.281v-.657a.626.626 0 0 0-.625-.619z" class="cls-1" transform="translate(47.664 2692.665)"/>
        </g>
    </g>
</svg>
