<svg xmlns="http://www.w3.org/2000/svg" width="16.124" height="16.048" viewBox="0 0 16.124 16.048">
    <defs>
        <style>
            .cls-1{fill:#4a4a4a}
        </style>
    </defs>
    <g id="chat" transform="translate(-1.282 -1.525)">
        <path id="Path_113" d="M5.537 12.261a3.849 3.849 0 0 1-.147 1.382.892.892 0 0 0 1.258 1.051 6.618 6.618 0 0 0 2.669-2.3h.536a5.432 5.432 0 1 0 0-10.864H6.709a5.432 5.432 0 0 0-1.172 10.731zM6.71 2.519h3.144a4.439 4.439 0 1 1 0 8.878h-.827a.5.5 0 0 0-.44.265A5.266 5.266 0 0 1 6.4 13.7a4.964 4.964 0 0 0 .078-1.936.5.5 0 0 0-.419-.417 4.439 4.439 0 0 1 .645-8.831zm9.85 6.8a4.009 4.009 0 0 1 .846 2.482 4.072 4.072 0 0 1-3.073 3.921 2.609 2.609 0 0 0 .106.842.781.781 0 0 1-1.1.928 4.955 4.955 0 0 1-1.939-1.649h-.3a4.032 4.032 0 0 1-2.2-.655.5.5 0 0 1 .539-.827 3.043 3.043 0 0 0 1.655.5h.594a.5.5 0 0 1 .44.266 3.428 3.428 0 0 0 1.253 1.258 3.766 3.766 0 0 1 0-1.138.5.5 0 0 1 .432-.43 3.069 3.069 0 0 0 2.6-3.023 3.025 3.025 0 0 0-.639-1.868.5.5 0 0 1 .784-.607z" class="cls-1"/>
        <circle id="Ellipse_11" cx="1" cy="1" r="1" class="cls-1" transform="translate(4.174 5.698)"/>
        <circle id="Ellipse_12" cx="1" cy="1" r="1" class="cls-1" transform="translate(7.174 5.698)"/>
        <circle id="Ellipse_13" cx="1" cy="1" r="1" class="cls-1" transform="translate(10.174 5.698)"/>
    </g>
</svg>
