<svg xmlns="http://www.w3.org/2000/svg" width="16" height="15.749" viewBox="0 0 16 15.749">
    <defs>
        <style>
            .cls-1{fill:#fff}
        </style>
    </defs>
    <g id="chat_active">
        <g id="Group_591" transform="translate(7.761 7.561)">
            <g id="Group_590">
                <path id="Path_771" d="M4.7 250.655a7.658 7.658 0 0 0 2.269-4.694 4.889 4.889 0 0 1 1.059 3.055 4.945 4.945 0 0 1-.475 2.105l.64 1.863a.88.88 0 0 1-.829 1.166.886.886 0 0 1-.288-.048l-1.863-.64a4.945 4.945 0 0 1-2.105.475 4.891 4.891 0 0 1-3.108-1.1 7.665 7.665 0 0 0 4.7-2.182z" class="cls-1" transform="translate(0 -245.961)"/>
            </g>
        </g>
        <g id="Group_593">
            <g id="Group_592">
                <path id="Exclusion_1" d="M-38.957-2572.183a1.035 1.035 0 0 1-.736-.307 1.039 1.039 0 0 1-.249-1.078l.93-2.7a6.78 6.78 0 0 1-.686-2.958 6.713 6.713 0 0 1 1.94-4.744 6.711 6.711 0 0 1 4.707-2.03h.113a6.714 6.714 0 0 1 4.776 1.979 6.706 6.706 0 0 1 1.978 4.889 6.71 6.71 0 0 1-2.024 4.708 6.721 6.721 0 0 1-4.733 1.94h-.011a6.785 6.785 0 0 1-2.958-.686l-2.7.929a1.058 1.058 0 0 1-.347.058zm8.85-9.644a1 1 0 0 0-1 1 1 1 0 0 0 1 1 1 1 0 0 0 1-1 1 1 0 0 0-1.001-.999zm-3 0a1 1 0 0 0-1 1 1 1 0 0 0 1 1 1 1 0 0 0 1-1 1 1 0 0 0-1-.999zm-3 0a1 1 0 0 0-1 1 1 1 0 0 0 1 1 1 1 0 0 0 1-1 1 1 0 0 0-1-.999z" class="cls-1" transform="translate(40 2586)"/>
            </g>
        </g>
    </g>
</svg>
