<svg xmlns="http://www.w3.org/2000/svg" width="20.2" height="16.669" viewBox="0 0 20.2 16.669">
    <defs>
        <style>
            .cls-1{fill:#848484;stroke:#707070;stroke-width:.2px}
        </style>
    </defs>
    <g id="comment_user" transform="translate(.1 -.4)">
        <path id="Path_120" d="M15.9.5H4.1A4.106 4.106 0 0 0 0 4.6v6.335a4.035 4.035 0 0 0 2.9 3.88L4.883 16.8a.586.586 0 0 0 .829 0l1.817-1.82H15.9a4.106 4.106 0 0 0 4.1-4.1V4.6A4.106 4.106 0 0 0 15.9.5zm2.93 10.378a2.933 2.933 0 0 1-2.93 2.93H7.286a.586.586 0 0 0-.414.172L5.3 15.554l-1.68-1.677a.585.585 0 0 0-.273-.154 2.865 2.865 0 0 1-2.175-2.786V4.6A2.933 2.933 0 0 1 4.1 1.672h11.8a2.933 2.933 0 0 1 2.93 2.93zm0 0" class="cls-1"/>
        <path id="Path_121" d="M153.785 144.328h-7.441a.586.586 0 0 0 0 1.172h7.441a.586.586 0 0 0 0-1.172zm0 0" class="cls-1" transform="translate(-140.064 -138.21)"/>
        <path id="Path_122" d="M153.785 197.352h-7.441a.586.586 0 0 0 0 1.172h7.441a.586.586 0 0 0 0-1.172zm0 0" class="cls-1" transform="translate(-140.064 -189.162)"/>
    </g>
</svg>
