<svg xmlns="http://www.w3.org/2000/svg" width="22.207" height="22.2" viewBox="0 0 22.207 22.2">
    <defs>
        <style>
            .cls-1{fill:#4a4a4a;stroke:#fff;stroke-width:.2px}
        </style>
    </defs>
    <g id="following" transform="translate(.106 .1)">
        <g id="Group_208">
            <g id="Group_207">
                <path id="Path_181" d="M15.794 11.039a11.18 11.18 0 0 0-1.294-.519 5.844 5.844 0 1 0-7 0 11.178 11.178 0 0 0-7.444 8.331A2.611 2.611 0 0 0 2.608 22h10.584a.859.859 0 1 0 0-1.719H2.608a.873.873 0 0 1-.687-.327.9.9 0 0 1-.182-.753 9.495 9.495 0 0 1 9.034-7.519h.458a9.361 9.361 0 0 1 3.826.908.859.859 0 0 0 .738-1.552zM11.21 9.963h-.418a4.125 4.125 0 1 1 .418 0z" class="cls-1"/>
            </g>
        </g>
        <g id="Group_210" transform="translate(13.836 13.836)">
            <g id="Group_209">
                <path id="Path_182" d="M329.3 325.223h-2.363v-2.363a.859.859 0 0 0-1.719 0v2.363h-2.363a.859.859 0 0 0 0 1.719h2.363v2.358a.859.859 0 0 0 1.719 0v-2.363h2.363a.859.859 0 0 0 0-1.719z" class="cls-1" transform="translate(-322 -322)"/>
            </g>
        </g>
    </g>
</svg>
