<svg xmlns="http://www.w3.org/2000/svg" width="22" height="22" viewBox="0 0 22 22">
    <defs>
        <style>
            .cls-1{fill:#4a4a4a}
        </style>
    </defs>
    <g id="followers" transform="translate(0 -.002)">
        <g id="Group_212" transform="translate(0 .002)">
            <g id="Group_211">
                <path id="Path_183" d="M16.885 8.578a4.844 4.844 0 1 0-7.826-2.712 4.844 4.844 0 0 0-3.939 8.5A8.222 8.222 0 0 0 0 21.973h1.719a6.5 6.5 0 0 1 6.49-6.49 4.847 4.847 0 0 0 4.738-5.864 4.857 4.857 0 0 0 .85.075 6.482 6.482 0 0 1 5.171 2.575l1.165-1.3a8.25 8.25 0 0 0-3.248-2.391zm-8.676 5.186a3.127 3.127 0 1 1 3.127-3.127 3.13 3.13 0 0 1-3.127 3.127zm5.591-5.79a3.127 3.127 0 1 1 3.127-3.126A3.13 3.13 0 0 1 13.8 7.974z" class="cls-1" transform="translate(0 -.002)"/>
            </g>
        </g>
        <g id="Group_214" transform="translate(10.195 12.888)">
            <g id="Group_213">
                <path id="Path_184" d="M247.793 299.9l-5.971 6.648-3.37-3.208-1.185 1.245 4.651 4.428 7.153-7.965z" class="cls-1" transform="translate(-237.267 -299.903)"/>
            </g>
        </g>
    </g>
</svg>
