<svg xmlns="http://www.w3.org/2000/svg" width="28" height="25.834" viewBox="0 0 28 25.834">
    <defs>
        <style>
            .cls-1{fill:#4a4a4a}
        </style>
    </defs>
    <g id="friends" transform="translate(2.5 -17.5)">
        <g id="Group_74" transform="translate(10.822 17.5)">
            <g id="Group_73">
                <g id="Group_72">
                    <path id="Path_78" d="M244.844 18.177V21.4a.677.677 0 0 1-1.354 0v-3.223a.677.677 0 0 1 1.354 0z" class="cls-1" transform="translate(-243.49 -17.5)"/>
                </g>
            </g>
        </g>
        <g id="Group_77" transform="translate(6.075 20.671)">
            <g id="Group_76">
                <g id="Group_75">
                    <path id="Path_79" d="M158.289 78.508a.677.677 0 0 1-.958 0l-1.3-1.295a.677.677 0 0 1 .957-.958l1.3 1.294a.678.678 0 0 1 .001.959z" class="cls-1" transform="translate(-155.838 -76.059)"/>
                </g>
            </g>
        </g>
        <g id="Group_80" transform="translate(14.194 20.673)">
            <g id="Group_79">
                <g id="Group_78">
                    <path id="Path_80" d="M308.47 76.755a.677.677 0 0 1-.2.479l-1.377 1.379a.677.677 0 0 1-.958-.958l1.378-1.378a.676.676 0 0 1 1.155.478z" class="cls-1" transform="translate(-305.739 -76.079)"/>
                </g>
            </g>
        </g>
        <g id="Group_83" transform="translate(-2.5 25.638)">
            <g id="Group_82">
                <g id="Group_81">
                    <path id="Path_81" d="M21.817 173.923h-.177a2.855 2.855 0 0 0 .445-1.54v-.765a2.894 2.894 0 0 0-5.788 0v.268l-3.844-3.844a.96.96 0 0 0-.953-.238.957.957 0 0 0-.953.238L6.7 171.886v-.268a2.894 2.894 0 0 0-5.788 0v.765a2.862 2.862 0 0 0 .445 1.54h-.174a3.687 3.687 0 0 0-3.683 3.683v7.176a.678.678 0 0 0 .677.677H.465a.652.652 0 0 0 .155-.018.66.66 0 0 0 .156.018h6.066a.678.678 0 0 0 .677-.677v-1.842a.677.677 0 1 0-1.354 0v1.16H1.454v-6.036a.677.677 0 1 0-1.354 0v6.036h-1.246v-6.5a2.332 2.332 0 0 1 2.329-2.329h3.764a.669.669 0 0 0 .473-.193l5.378-5.377a5.837 5.837 0 0 1-.972 2.72l-3.545 5.264a.677.677 0 0 0-.115.378v.593a.677.677 0 1 0 1.354 0v-.386l3.429-5.093a7.252 7.252 0 0 0 .551-.976 7.244 7.244 0 0 0 .551.976l3.429 5.093v6.506a.678.678 0 0 0 .677.677h6.066a.663.663 0 0 0 .156-.018.655.655 0 0 0 .155.018h2.288a.678.678 0 0 0 .677-.677V177.6a3.687 3.687 0 0 0-3.682-3.677zm-16.467-1.54a1.54 1.54 0 0 1-3.081 0v-.765a1.54 1.54 0 0 1 3.081 0zm12.3-.765a1.54 1.54 0 0 1 3.081 0v.765a1.54 1.54 0 0 1-3.081 0zm6.5 12.487H22.9v-3.872a.677.677 0 0 0-1.354 0v3.867h-4.711v-6.036a.677.677 0 0 0-.115-.378l-3.545-5.264a5.847 5.847 0 0 1-.972-2.72l5.372 5.372.028.025a.675.675 0 0 0 .451.173h3.764a2.332 2.332 0 0 1 2.329 2.329z" class="cls-1" transform="translate(2.5 -167.763)"/>
                </g>
            </g>
        </g>
        <g id="Group_86" transform="translate(21.546 35.267)">
            <g id="Group_85">
                <g id="Group_84">
                    <path id="Path_82" d="M442.854 346.227a.677.677 0 1 1-.2-.479.682.682 0 0 1 .2.479z" class="cls-1" transform="translate(-441.5 -345.55)"/>
                </g>
            </g>
        </g>
        <g id="Group_89" transform="translate(6.165 38.134)">
            <g id="Group_88">
                <g id="Group_87">
                    <path id="Path_83" d="M158.854 399.177a.677.677 0 1 1-.2-.479.683.683 0 0 1 .2.479z" class="cls-1" transform="translate(-157.5 -398.5)"/>
                </g>
            </g>
        </g>
    </g>
</svg>
