<svg xmlns="http://www.w3.org/2000/svg" width="15.129" height="22.3" viewBox="0 0 15.129 22.3">
    <g>
        <g>
            <path fill="#bababa" stroke="#bababa" stroke-width="0.3px" d="M97.954 17.825a.322.322 0 0 0-.322.322v3.03a.178.178 0 0 1-.178.178h-1.733v-6.346a.322.322 0 1 0-.645 0v6.346h-3.488l1.012-1.112a.578.578 0 0 0 .139-.464v-.01l-.963-5.692.26-.391a.731.731 0 0 0 .461.2.564.564 0 0 0 .503-.312l1.016-2.037 2.315.9a2.233 2.233 0 0 1 1.3 2.03v2.18a.322.322 0 1 0 .645 0v-2.18a2.876 2.876 0 0 0-1.7-2.627h-.006l-3.853-1.492v-.9a3.02 3.02 0 0 0 1.143-1.986 1.4 1.4 0 0 0 .819-.334 1.368 1.368 0 0 0 .143-1.931V3.994a3.994 3.994 0 1 0-7.988 0v1.225a1.294 1.294 0 0 0-.332.863 1.366 1.366 0 0 0 .475 1.037 1.394 1.394 0 0 0 .819.334A2.988 2.988 0 0 0 89 9.487v.856l-3.849 1.492h-.006a2.876 2.876 0 0 0-1.7 2.627v6.714a.823.823 0 0 0 .825.824h3.07a.322.322 0 0 0 0-.645h-.693v-6.346a.322.322 0 1 0-.645 0v6.346H84.27a.178.178 0 0 1-.178-.178v-6.713a2.233 2.233 0 0 1 1.3-2.03l2.313-.9 1.016 2.037a.564.564 0 0 0 .505.312.73.73 0 0 0 .461-.2l.26.391-.963 5.692v.01a.578.578 0 0 0 .139.464l1.012 1.113h-1.291a.322.322 0 0 0 0 .645h8.609a.823.823 0 0 0 .823-.823v-3.03a.322.322 0 0 0-.322-.32zM93.413 11.3l-.947 1.9-1.139-.809 1.17-1.444zm-1.9 2.009l-.246.37h-.8l-.246-.37.648-.46zm-1.861-2.867v-.6a3.27 3.27 0 0 0 1.219.231 3.026 3.026 0 0 0 1.205-.251v.626l-1.216 1.496zm4.861-4.365a.722.722 0 0 1-.251.548.751.751 0 0 1-.372.171V5.363a.729.729 0 0 1 .619.719zm-6.745.723a.728.728 0 0 1-.623-.719.765.765 0 0 1 .623-.7zm.017-2.079a1.593 1.593 0 0 0-.308.069v-.8a3.349 3.349 0 1 1 6.7 0v.775a1.433 1.433 0 0 0-.291-.056c0-.311 0-.251-1.015-1.345a.573.573 0 0 0-.732-.089 6.213 6.213 0 0 1-3.756 1.015.573.573 0 0 0-.598.432zm.627 2.333V4.938a6.887 6.887 0 0 0 4.028-1.086c.467.5.719.764.8.864v2.339a2.415 2.415 0 0 1-4.829 0zm.843 6.148l-.947-1.9.915-.354 1.171 1.445zm.37 6.636l.933-5.511h.6l.933 5.511L90.86 21.2z" transform="translate(-83.297 .15) translate(83.447) translate(-83.447)"/>
        </g>
    </g>
</svg>
