<svg xmlns="http://www.w3.org/2000/svg" width="16" height="14.981" viewBox="0 0 16 14.981">
    <defs>
        <style>
            .cls-1{fill:#fff}
        </style>
    </defs>
    <g id="gift_active" transform="translate(0 -16.308)">
        <g id="Group_595" transform="translate(1 24.289)">
            <g id="Group_594">
                <path id="Path_773" d="M32 271.692v6a1 1 0 0 0 1 1h5v-7z" class="cls-1" transform="translate(-32 -271.692)"/>
            </g>
        </g>
        <g id="Group_597" transform="translate(0 16.308)">
            <g id="Group_596">
                <path id="Path_774" d="M15 20.289h-3.164a3.885 3.885 0 0 0 .558-.447 2.09 2.09 0 0 0 0-2.942 2.113 2.113 0 0 0-2.933 0c-.434.435-1.584 2.206-1.425 3.389h-.072c.158-1.183-.992-2.954-1.425-3.389a2.115 2.115 0 0 0-2.933 0 2.093 2.093 0 0 0 0 2.942 3.957 3.957 0 0 0 .559.447H1a1 1 0 0 0-1 1v1.5a.5.5 0 0 0 .5.5H7v-2h2v2h6.5a.5.5 0 0 0 .5-.5v-1.5a1 1 0 0 0-1-1zm-8.059-.033a.33.33 0 0 1-.185.033 4.917 4.917 0 0 1-2.441-1.152 1.091 1.091 0 0 1 0-1.532 1.066 1.066 0 0 1 1.515 0c.67.678 1.344 2.41 1.111 2.651zm2.3.033c-.142 0-.184-.032-.184-.033-.233-.241.437-1.973 1.111-2.651a1.077 1.077 0 0 1 1.515 1.532 4.917 4.917 0 0 1-2.44 1.152z" class="cls-1" transform="translate(0 -16.308)"/>
            </g>
        </g>
        <g id="Group_599" transform="translate(9 24.289)">
            <g id="Group_598">
                <path id="Path_775" d="M288 271.692v7h5a1 1 0 0 0 1-1v-6z" class="cls-1" transform="translate(-288 -271.692)"/>
            </g>
        </g>
    </g>
</svg>
