<svg xmlns="http://www.w3.org/2000/svg" width="57" height="57" viewBox="0 0 57 57">
    <defs>
        <filter id="yc5hp0d55a" width="57" height="57" x="0" y="0" filterUnits="userSpaceOnUse">
            <feOffset dy="2"/>
            <feGaussianBlur result="blur" stdDeviation="2"/>
            <feFlood flood-opacity=".161"/>
            <feComposite in2="blur" operator="in"/>
            <feComposite in="SourceGraphic"/>
        </filter>
    </defs>
    <g>
        <g filter="url(#yc5hp0d55a)" transform="translate(-201 -332) translate(201 332)">
            <path fill="#fff" d="M0 0H45V45H0z" transform="translate(6 4)"/>
        </g>
        <g>
            <path fill="#fbbb00" d="M4.876 145.622l-.766 2.858-2.8.059a11.019 11.019 0 0 1-.081-10.272l2.492.457 1.093 2.476a6.565 6.565 0 0 0 .062 4.42z" transform="translate(-201 -332) translate(219 348) translate(0 -132.327)"/>
            <path fill="#518ef8" d="M272.194 208.176a11 11 0 0 1-3.921 10.633l-3.139-.16-.444-2.773a6.556 6.556 0 0 0 2.821-3.348h-5.882v-4.352h10.566z" transform="translate(-201 -332) translate(219 348) translate(-250.386 -199.231)"/>
            <path fill="#28b446" d="M47.084 315.692a11 11 0 0 1-16.576-3.365l3.565-2.918a6.542 6.542 0 0 0 9.427 3.35z" transform="translate(-201 -332) translate(219 348) translate(-29.198 -296.114)"/>
            <path fill="#f14336" d="M45.415 2.532L41.852 5.45a6.541 6.541 0 0 0-9.644 3.425l-3.583-2.934a11 11 0 0 1 16.79-3.409z" transform="translate(-201 -332) translate(219 348) translate(-27.394)"/>
        </g>
    </g>
</svg>
