<svg xmlns="http://www.w3.org/2000/svg" width="30" height="30" viewBox="0 0 30 30">
    <g transform="translate(-1085 -16)">
        <circle cx="15" cy="15" r="15" fill="#fff" transform="translate(1085 16)"/>
        <path fill="#4a4a4a" d="M13.928 6.336H8.391V.8A.993.993 0 0 0 7.364 0a.993.993 0 0 0-1.028.8v5.536H.8A.993.993 0 0 0 0 7.364a.993.993 0 0 0 .8 1.027h5.536v5.537a.993.993 0 0 0 1.027.8.993.993 0 0 0 1.027-.8V8.391h5.537a.993.993 0 0 0 .8-1.027.993.993 0 0 0-.799-1.028z" transform="rotate(45 525.095 1338.242)"/>
    </g>
</svg>
