<svg xmlns="http://www.w3.org/2000/svg" width="19" height="16.594" viewBox="0 0 19 16.594">
    <g>
        <g>
            <path fill="#4a4a4a" d="M9.5 20L0 27.228l2.1 2.478 1.125-.856v7.741h12.549V28.85l1.125.856L19 27.228zm1.707 15.539H7.793v-3.834a1.709 1.709 0 0 1 3.414 0zm3.454 0H12.32v-3.834a2.752 2.752 0 0 0-2.82-2.671 2.752 2.752 0 0 0-2.82 2.672v3.831H4.339V28L9.5 24.074 14.661 28v7.534zm2.067-7.314L9.5 22.721l-7.228 5.5-.707-.834L9.5 21.35l7.935 6.039z" transform="translate(0 -19.997) translate(0 19.997) translate(0 -19.997)"/>
        </g>
    </g>
</svg>
