<svg xmlns="http://www.w3.org/2000/svg" width="16.4" height="15.233" viewBox="0 0 16.4 15.233">
    <g>
        <path fill="#66180d" stroke="#66180d" stroke-width="0.4px" d="M13.6 3A4.521 4.521 0 0 1 18 7.8c0 5.6-6 8.8-8 10-2-1.2-8-4.4-8-10A4.54 4.54 0 0 1 6.4 3 5.293 5.293 0 0 1 10 4.6 5.293 5.293 0 0 1 13.6 3zm-2.853 12.483a21.562 21.562 0 0 0 1.936-1.361c2.385-1.9 3.717-3.968 3.717-6.322a2.932 2.932 0 0 0-2.8-3.2 3.686 3.686 0 0 0-2.469 1.131L10 6.862 8.869 5.731A3.686 3.686 0 0 0 6.4 4.6a2.95 2.95 0 0 0-2.8 3.2c0 2.355 1.333 4.426 3.716 6.322a21.526 21.526 0 0 0 1.937 1.36c.239.151.476.3.747.458.271-.162.508-.306.747-.457z" transform="translate(-1.467 -2.3) translate(-.333 -.5)"/>
    </g>
</svg>
