<svg xmlns="http://www.w3.org/2000/svg" width="80" height="80" viewBox="0 0 80 80">
    <defs>
        <linearGradient id="linear-gradient" x1=".061" x2="1" y1=".96" gradientUnits="objectBoundingBox">
            <stop offset="0" stop-color="#eee6e5" stop-opacity="0"/>
            <stop offset="1" stop-color="#66180d" stop-opacity=".078"/>
        </linearGradient>
        <style>
            .cls-2{fill:#66180d}
        </style>
    </defs>
    <g id="ic_forgot_password" transform="translate(-335 -152)">
        <rect id="Rectangle_12" width="80" height="80" fill="url(#linear-gradient)" rx="10" transform="translate(335 152)"/>
        <g id="password" transform="translate(345 155.5)">
            <path id="Path_13" d="M54.433 7.5H17.461a.879.879 0 1 0 0 1.758h36.972a3.813 3.813 0 0 1 3.809 3.809v33.294a3.288 3.288 0 0 0-1.552-.387h-.265V25.2a.879.879 0 0 0-1.758 0v12.62a7.085 7.085 0 0 0-12.421 4.66v3.493h-.265a3.315 3.315 0 0 0-3.154 2.307H6.8a1.466 1.466 0 0 1-1.465-1.465V14.238A1.466 1.466 0 0 1 6.8 12.773h46.4a1.466 1.466 0 0 1 1.465 1.465v6.855a.879.879 0 0 0 1.758 0v-6.855a3.226 3.226 0 0 0-3.223-3.222H6.8a3.226 3.226 0 0 0-3.223 3.223v32.577A3.226 3.226 0 0 0 6.8 50.039h31.872V51.8H5.566a3.813 3.813 0 0 1-3.809-3.809V13.066a3.813 3.813 0 0 1 3.809-3.808h7.793a.879.879 0 0 0 0-1.758H5.566A5.573 5.573 0 0 0 0 13.066v34.922a5.573 5.573 0 0 0 5.566 5.566h13.106l-2.031 3.809h-1.934a3.34 3.34 0 0 0 0 6.68h24.384a3.311 3.311 0 0 0 2.89 1.7h14.71A3.313 3.313 0 0 0 60 62.433V13.066A5.573 5.573 0 0 0 54.433 7.5zM44 42.48a5.332 5.332 0 0 1 10.664 0v3.493H52.91V42.48a3.574 3.574 0 0 0-7.148 0v3.493H44zm7.148 3.493h-3.629V42.48a1.816 1.816 0 0 1 3.633 0zM13.125 60.7a1.584 1.584 0 0 1 1.582-1.582h20.742a.879.879 0 1 0 0-1.758H18.633l2.031-3.809h18.008v8.73H14.707a1.584 1.584 0 0 1-1.582-1.581zm45.117 1.73a1.553 1.553 0 0 1-1.552 1.552H41.981a1.553 1.553 0 0 1-1.552-1.552V49.283a1.553 1.553 0 0 1 1.552-1.552h14.71a1.553 1.553 0 0 1 1.552 1.552v13.15z" class="cls-2"/>
            <path id="Path_14" d="M99.035 131.79h23.2a3.226 3.226 0 0 0 3.223-3.223v-6.327a3.226 3.226 0 0 0-3.223-3.223H88.723a3.226 3.226 0 0 0-3.223 3.223v6.328a3.226 3.226 0 0 0 3.223 3.223h6.211a.879.879 0 0 0 0-1.758h-6.211a1.466 1.466 0 0 1-1.465-1.465v-6.328a1.466 1.466 0 0 1 1.465-1.465h33.516a1.466 1.466 0 0 1 1.465 1.465v6.328a1.466 1.466 0 0 1-1.465 1.465h-23.2a.879.879 0 0 0 0 1.758z" class="cls-2" transform="translate(-75.48 -98.449)"/>
            <path id="Path_15" d="M126.848 147.108a.879.879 0 0 0-1.2-.331l-.8.454v-.831a.879.879 0 0 0-1.758 0v.808l-.769-.452a.879.879 0 1 0-.891 1.515l.781.459-.686.389a.884.884 0 0 0 .434 1.644c.312.032.863-.38 1.131-.51v.953a.879.879 0 0 0 1.758 0v-.924c.272.139.792.546 1.112.514a.879.879 0 0 0 .446-1.637l-.681-.4.789-.447a.879.879 0 0 0 .334-1.204z" class="cls-2" transform="translate(-106.819 -121.843)"/>
            <path id="Path_16" d="M196.85 146.4a.879.879 0 1 0-1.758 0v.808l-.769-.452a.879.879 0 1 0-.891 1.515l.781.459-.686.389a.884.884 0 0 0 .434 1.644c.312.032.863-.38 1.131-.51v.953a.879.879 0 1 0 1.758 0v-.924c.272.139.792.546 1.112.514a.879.879 0 0 0 .446-1.637l-.681-.4.789-.447a.879.879 0 1 0-.867-1.529l-.8.454z" class="cls-2" transform="translate(-170.381 -121.843)"/>
            <path id="Path_17" d="M268.85 146.4a.879.879 0 0 0-1.758 0v.808l-.769-.452a.879.879 0 1 0-.891 1.515l.781.459-.686.389a.879.879 0 0 0 .434 1.644c.312.032.863-.38 1.131-.51v.953a.879.879 0 0 0 1.758 0v-.924c.272.139.792.546 1.112.514a.879.879 0 0 0 .446-1.637l-.681-.4.789-.447a.879.879 0 1 0-.867-1.529l-.8.453v-.836z" class="cls-2" transform="translate(-233.944 -121.843)"/>
            <path id="Path_18" d="M339.449 187.775a.879.879 0 0 0 0-1.758h-4.57a.879.879 0 0 0 0 1.758z" class="cls-2" transform="translate(-294.859 -157.597)"/>
            <path id="Path_19" d="M397.605 383.5a3.105 3.105 0 0 0-.879 6.084v1.552a.879.879 0 0 0 1.758 0v-1.552a3.105 3.105 0 0 0-.879-6.084zm0 4.453a1.348 1.348 0 1 1 1.348-1.348 1.349 1.349 0 0 1-1.348 1.348z" class="cls-2" transform="translate(-348.27 -331.938)"/>
        </g>
    </g>
</svg>
