<svg xmlns="http://www.w3.org/2000/svg" width="60" height="60" viewBox="0 0 60 60">
    <g>
        <g fill="#fff" stroke="#bababa" transform="translate(-267 -214) translate(267 214)">
            <circle cx="30" cy="30" r="30" stroke="none"/>
            <circle cx="30" cy="30" r="29.5" fill="none"/>
        </g>
        <g>
            <g>
                <g>
                    <g>
                        <g>
                            <g>
                                <g>
                                    <path fill="#66180d" fill-rule="evenodd" d="M29.991 20.929c-.516-1.478-1.684-1.134-4.331-1.444s-2.544-1.031-3.025-.928c-.481.137-1.409.275-4.366-.481s-3.712-5.569-6.394-9.144S4.175.167 3.591.167C2.972.167 1.459 2.71.566 4.739a5.324 5.324 0 0 0-.275 3.712c-.206 0 1.375 3.4 2.234 9.419a91.645 91.645 0 0 1 .619 13.406l1.169.172.378-.275c-.206-15.469.756-18.322 1-18.494s.619-1.444 4.194 7.012 1.409 12.925 6.944 12.925a27.18 27.18 0 0 0 11.584-3.059c.271-.275 2.093-7.15 1.578-8.628zM18.922 19.9c-4.744-.309-5.431-4.95-8.937-10.828A56.188 56.188 0 0 0 3.934.545c.207-.172 3.713 4.09 4.607 4.915a22.339 22.339 0 0 1 4.916 7.184C16.55 19.692 20.022 19 20.984 19a9.656 9.656 0 0 1 1.994.034c-.034.039-1.237 1.105-4.056.866z" transform="translate(-267 -214) translate(280.918 225.833) translate(4.082 2.167) translate(-.082 -.167)"/>
                                </g>
                            </g>
                        </g>
                    </g>
                </g>
            </g>
        </g>
    </g>
</svg>
