<svg xmlns="http://www.w3.org/2000/svg" width="19.724" height="18.421" viewBox="0 0 19.724 18.421">
    <g>
        <g>
            <path fill="none" fill-rule="evenodd" stroke="#66180d" stroke-width="1.5px" d="M43.079 523.189a1.113 1.113 0 0 1-1.453.092v7.5a1.126 1.126 0 0 1-1.123 1.127h-9a1.127 1.127 0 0 1-1.127-1.127v-7.5a1.111 1.111 0 0 1-1.452-.092l-1.595-1.589a1.131 1.131 0 0 1 0-1.6l3.183-3.189a1.2 1.2 0 0 1 .1-.067 3.136 3.136 0 0 1 .886-.62L33.747 515A3.949 3.949 0 0 0 36 516.124c1.244 0 2.32-1.276 2.253-1.126l2.251 1.126a3.141 3.141 0 0 1 .884.62 1.185 1.185 0 0 1 .1.067L44.67 520a1.129 1.129 0 0 1 0 1.6z" transform="translate(-.139 -.236) translate(1 .986) translate(-27 -514.986)"/>
        </g>
    </g>
</svg>
