<svg xmlns="http://www.w3.org/2000/svg" id="ic_mannequin" width="35" height="81.421" viewBox="0 0 35 81.421">
    <defs>
        <style>
            .cls-1{fill:#848484}
        </style>
    </defs>
    <path id="Path_168" d="M27.038 416.438h-7.952v-5.132a1.591 1.591 0 1 0-3.181 0v5.132H7.953A7.962 7.962 0 0 0 0 424.391a1.591 1.591 0 0 0 1.59 1.59H33.4a1.591 1.591 0 0 0 1.59-1.59 7.962 7.962 0 0 0-7.952-7.953zM3.453 422.8a4.78 4.78 0 0 1 4.5-3.181h19.085a4.779 4.779 0 0 1 4.5 3.181zm0 0" class="cls-1" transform="translate(0 -344.56)"/>
    <path id="Path_169" d="M101.6 377.9a1.591 1.591 0 1 0-1.124-.466 1.6 1.6 0 0 0 1.124.466zm0 0" class="cls-1" transform="translate(-84.107 -315.125)"/>
    <path id="Path_170" d="M34.143 10.557l-8.554-4.052a1.7 1.7 0 0 1-.967-1.527V1.59A1.591 1.591 0 0 0 23.032 0H12.084a1.59 1.59 0 0 0-1.59 1.59v3.388a1.7 1.7 0 0 1-.967 1.527L.973 10.557a1.591 1.591 0 0 0-.91 1.437v7.974A1.592 1.592 0 0 0 .3 20.8l3.692 5.977a8.617 8.617 0 0 1 1.286 4.531 8.673 8.673 0 0 1-.806 3.639 31.46 31.46 0 0 0-2.92 13.19v7.341a1.591 1.591 0 0 0 1.59 1.59h28.83a1.59 1.59 0 0 0 1.59-1.59v-7.337a31.46 31.46 0 0 0-2.92-13.19 8.622 8.622 0 0 1 .481-8.17l3.692-5.981a1.592 1.592 0 0 0 .237-.836v-7.97a1.591 1.591 0 0 0-.909-1.437zm-2.272 8.96l-3.454 5.593a11.8 11.8 0 0 0-.658 11.184 28.276 28.276 0 0 1 2.553 9.936H20.145a1.59 1.59 0 1 0 0 3.181h10.237v4.482H4.734v-5.752a28.269 28.269 0 0 1 2.622-11.848 11.878 11.878 0 0 0 1.1-4.981 11.8 11.8 0 0 0-1.761-6.2l-3.451-5.595V13l7.644-3.62a4.892 4.892 0 0 0 2.786-4.4v-1.8h7.767v1.8a4.893 4.893 0 0 0 2.786 4.4L31.871 13zm0 0" class="cls-1" transform="translate(-.053)"/>
    <path id="Path_171" d="M85.93 290.707a1.592 1.592 0 1 0 1.124.466 1.595 1.595 0 0 0-1.124-.466zm0 0" class="cls-1" transform="translate(-70.928 -244.477)"/>
</svg>
