<svg xmlns="http://www.w3.org/2000/svg" width="16.4" height="18.604" viewBox="0 0 16.4 18.604">
    <g>
        <path fill="#66180d" stroke="#66180d" stroke-width="0.4px" d="M45.976 11.852a2 2 0 0 1-1.11-1.8V8.071A5.877 5.877 0 0 0 40.6 2.426V1.6a1.6 1.6 0 0 0-3.2 0v.826a5.877 5.877 0 0 0-4.267 5.645v1.985a2 2 0 0 1-1.11 1.8 1.852 1.852 0 0 0 .828 3.508h2.813a3.378 3.378 0 0 0 6.671 0h2.813a1.852 1.852 0 0 0 .828-3.508zM38.467 1.6a.533.533 0 1 1 1.067 0v.629C39.358 2.213 39.18 2.2 39 2.2s-.358.009-.533.024zM39 17.138a2.315 2.315 0 0 1-2.248-1.778h4.5A2.315 2.315 0 0 1 39 17.138zm6.148-2.844h-12.3a.785.785 0 0 1-.351-1.487 3.057 3.057 0 0 0 1.7-2.75V8.071a4.8 4.8 0 1 1 9.6 0v1.985a3.057 3.057 0 0 0 1.7 2.75.785.785 0 0 1-.351 1.487z" transform="translate(-73.8 .2) translate(43)"/>
    </g>
</svg>
