<svg xmlns="http://www.w3.org/2000/svg" width="51.497" height="65" viewBox="0 0 51.497 65">
    <defs>
        <style>
            .cls-1{fill:#848484}
        </style>
    </defs>
    <g id="ic_upload_image" transform="translate(-.5)">
        <path id="Path_172" d="M35.528.5A1.573 1.573 0 0 0 34.4 0H9.041A8.577 8.577 0 0 0 .5 8.525v47.949A8.577 8.577 0 0 0 9.041 65h34.415A8.577 8.577 0 0 0 52 56.474V18.4a1.689 1.689 0 0 0-.455-1.1zm.455 5.04L46.706 16.8h-6.971a3.739 3.739 0 0 1-3.753-3.737zm7.473 56.32H9.041a5.438 5.438 0 0 1-5.4-5.386V8.525a5.438 5.438 0 0 1 5.4-5.385h23.8v9.923a6.869 6.869 0 0 0 6.893 6.877h9.122v36.534a5.428 5.428 0 0 1-5.4 5.386zm0 0" class="cls-1"/>
        <path id="Path_173" d="M116.585 401.934H90.742a1.57 1.57 0 0 0 0 3.14H116.6a1.57 1.57 0 1 0-.016-3.14zm0 0" class="cls-1" transform="translate(-77.415 -350.907)"/>
        <path id="Path_174" d="M121.126 182.81l6.469-6.956V193a1.57 1.57 0 1 0 3.14 0v-17.146l6.469 6.956a1.567 1.567 0 0 0 2.293-2.135l-9.2-9.876a1.558 1.558 0 0 0-2.292 0l-9.2 9.876a1.565 1.565 0 0 0 .078 2.214 1.6 1.6 0 0 0 2.243-.079zm0 0" class="cls-1" transform="translate(-102.916 -148.677)"/>
    </g>
</svg>
