<svg xmlns="http://www.w3.org/2000/svg" width="17.578" height="20" viewBox="0 0 17.578 20">
    <defs>
        <style>
            .cls-1{fill:#848484}
        </style>
    </defs>
    <g id="like_user" transform="translate(-31)">
        <g id="Group_152" transform="translate(31 3.555)">
            <g id="Group_151">
                <path id="Path_116" d="M48.129 99.828A1.757 1.757 0 0 0 46.82 96.9h-3.411a11.361 11.361 0 0 0 .482-2.969v-.586A2.347 2.347 0 0 0 41.547 91h-.586a.586.586 0 0 0-.568.444l-.319 1.277c-.447 1.788-1.867 3.761-3.337 4.12a1.76 1.76 0 0 0-1.637-1.114h-3.514a.586.586 0 0 0-.586.586v10.547a.586.586 0 0 0 .586.586H35.1a1.76 1.76 0 0 0 1.587-1l2.013.671a6.431 6.431 0 0 0 2.038.331h4.909a1.758 1.758 0 0 0 1.634-2.405 1.757 1.757 0 0 0 .846-2.868 1.754 1.754 0 0 0 0-2.344zm-12.442 5.859a.587.587 0 0 1-.586.586h-2.93V96.9H35.1a.587.587 0 0 1 .586.586zm9.961-5.273h1.172a.586.586 0 1 1 0 1.172h-1.172a.586.586 0 1 0 0 1.172h1.172a.586.586 0 1 1 0 1.172h-1.172a.586.586 0 1 0 0 1.172.586.586 0 1 1 0 1.172H40.74a5.262 5.262 0 0 1-1.668-.274l-2.213-.737v-7.25a4.722 4.722 0 0 0 2.631-1.709 8.55 8.55 0 0 0 1.72-3.3l.208-.833h.129a1.173 1.173 0 0 1 1.172 1.172v.586a9.272 9.272 0 0 1-.561 2.969h-1.2a.586.586 0 0 0 0 1.172h5.862a.586.586 0 1 1 0 1.172h-1.172a.586.586 0 1 0 0 1.172z" class="cls-1" transform="translate(-31 -91)"/>
            </g>
        </g>
        <g id="Group_154" transform="translate(33.344 16.484)">
            <g id="Group_153">
                <circle id="Ellipse_14" cx=".586" cy=".586" r=".586" class="cls-1"/>
            </g>
        </g>
        <g id="Group_156" transform="translate(41.547)">
            <g id="Group_155">
                <path id="Path_117" d="M301.586 0a.586.586 0 0 0-.586.586V1.8a.586.586 0 0 0 1.172 0V.586a.586.586 0 0 0-.586-.586z" class="cls-1" transform="translate(-301)"/>
            </g>
        </g>
        <g id="Group_158" transform="translate(37.818 1.584)">
            <g id="Group_157">
                <path id="Path_118" d="M207.369 41.542l-.829-.829a.586.586 0 0 0-.829.829l.829.829a.586.586 0 0 0 .829-.829z" class="cls-1" transform="translate(-205.54 -40.541)"/>
            </g>
        </g>
        <g id="Group_160" transform="translate(44.447 1.584)">
            <g id="Group_159">
                <path id="Path_119" d="M377.075 40.713a.586.586 0 0 0-.829 0l-.829.829a.586.586 0 0 0 .829.829l.829-.829a.586.586 0 0 0 0-.829z" class="cls-1" transform="translate(-375.246 -40.541)"/>
            </g>
        </g>
    </g>
</svg>
