<svg xmlns="http://www.w3.org/2000/svg" width="20.2" height="13.533" viewBox="0 0 20.2 13.533">
    <g>
        <g>
            <path fill="#bababa" stroke="#bababa" stroke-width="0.2px" d="M18.974 85.333H1.026A1.029 1.029 0 0 0 0 86.359v11.282a1.029 1.029 0 0 0 1.026 1.026h17.948A1.029 1.029 0 0 0 20 97.641V86.359a1.029 1.029 0 0 0-1.026-1.026zm-.385.769l-8 6a1.072 1.072 0 0 1-1.18 0l-8-6zm-4.273 6.4l4.359 5.385c0 .005.01.009.014.014H1.31c0-.005.01-.009.014-.014l4.36-5.387a.385.385 0 0 0-.6-.484l-4.315 5.33V86.583l8.179 6.135a1.836 1.836 0 0 0 2.1 0l8.179-6.135v10.763l-4.316-5.332a.385.385 0 0 0-.6.484z" transform="translate(.1 -85.233) translate(0 85.333) translate(0 -85.333)"/>
        </g>
    </g>
</svg>
