<svg xmlns="http://www.w3.org/2000/svg" width="16" height="11.803" viewBox="0 0 16 11.803">
    <path fill="#fff" d="M21.485-18762.711h-16v-1.3l6.76-4.4 3.352 2.045 5.889 3.6v.051zm-9.133-4.857l-.364.6 5.581 3.418.067.047.369-.6-5.581-3.418-.072-.047zm9.133 3.98l-5.139-3.133 1.973-1.836 3.167 2.061v2.91zm-3.613-3.8l-.384.59 3.162 2.045.384-.59-3.162-2.045zm-12.387 2.543v-9.666h16v7.174l-3.239-2.105-2.521 2.338-3.49-2.133-6.748 4.391zm.63-2.906v.7H7.53v-.7zm1.778-1.418v.7H9.3v-.7zm7.277-4.619a2.216 2.216 0 0 0-2.214 2.213 2.216 2.216 0 0 0 2.214 2.215 2.219 2.219 0 0 0 2.219-2.215 2.218 2.218 0 0 0-2.218-2.216zm-6.483.527a1.249 1.249 0 0 0-1.133.738 1.219 1.219 0 0 0-.994 1.215 1.238 1.238 0 0 0 1.24 1.234h2.306a1.238 1.238 0 0 0 1.24-1.234 1.242 1.242 0 0 0-1.24-1.24 1.076 1.076 0 0 0-.282.037 1.235 1.235 0 0 0-1.136-.753zm9.153 1.959v.7h1.414v-.7zm1.778-1.066v.7h1.414v-.7zm-8.174-1.066v.7h1.414v-.7zm7.288-.18v.7h1.409v-.7zm-12.618-.174v.7H7.53v-.7zm9.056 3.727a1.515 1.515 0 0 1-1.512-1.514 1.517 1.517 0 0 1 1.512-1.516 1.519 1.519 0 0 1 1.517 1.516 1.517 1.517 0 0 1-1.516 1.511zm-5.063-.707H7.8a.539.539 0 0 1-.538-.539.536.536 0 0 1 .471-.533l.338.164.087-.445a.542.542 0 0 1 .528-.436.539.539 0 0 1 .538.537v.7l.559-.41a.53.53 0 0 1 .323-.113.539.539 0 0 1 .538.539.539.539 0 0 1-.537.533z" transform="translate(-5.485 18774.514)"/>
</svg>
