<svg xmlns="http://www.w3.org/2000/svg" width="19.074" height="18.153" viewBox="0 0 19.074 18.153">
    <defs>
        <style>
            .cls-1{fill:#fff}
        </style>
    </defs>
    <g id="my_friend_active" transform="translate(-20.5 -21)">
        <path id="Path_190" d="M273.706 201.725h-2.945a.419.419 0 0 1-.284-.11l-.016-.014-4.4-4.4a4.664 4.664 0 0 0 .8 2.461l2.773 4.119a.423.423 0 0 1 .072.236v4.828h3.9v-3.136a.424.424 0 0 1 .847 0v3.136h1.186v-5.191a1.93 1.93 0 0 0-1.933-1.929zm.617 2.59a.423.423 0 1 1 .124-.3.427.427 0 0 1-.124.3z" class="cls-1" transform="translate(-236.06 -169.692)"/>
        <g id="Group_216" transform="translate(22.672 27.966)">
            <path id="Path_191" d="M85.682 209.311v.6a1.311 1.311 0 1 1-2.622 0v-.6a1.311 1.311 0 1 1 2.622 0z" class="cls-1" transform="translate(-82.56 -208)"/>
            <path id="Path_192" d="M369.682 209.311v.6a1.311 1.311 0 1 1-2.622 0v-.6a1.311 1.311 0 1 1 2.622 0z" class="cls-1" transform="translate(-355.732 -208)"/>
        </g>
        <path id="Path_193" d="M246.385 23.16a.4.4 0 0 0 .4-.4V20.4a.4.4 0 1 0-.8 0v2.365a.4.4 0 0 0 .4.395z" class="cls-1" transform="translate(-216.503 1)"/>
        <path id="Path_194" d="M159.4 80.179a.4.4 0 1 0 .562-.562l-.951-.95a.4.4 0 0 0-.562.562z" class="cls-1" transform="translate(-132.33 -55.222)"/>
        <path id="Path_195" d="M308.63 80.381a.4.4 0 0 0 .281-.117l1.011-1.012a.4.4 0 0 0-.562-.562l-1.011 1.01a.4.4 0 0 0 .281.679z" class="cls-1" transform="translate(-276.274 -55.244)"/>
        <path id="Path_196" d="M25.932 204.016v4.828h-3.9v-4.828a.424.424 0 0 0-.847 0v4.828H20v-5.191a1.93 1.93 0 0 1 1.928-1.928h2.945a.422.422 0 0 0 .3-.123l4.4-4.4a4.664 4.664 0 0 1-.8 2.461L26 203.779a.424.424 0 0 0-.068.237z" class="cls-1" transform="translate(.5 -169.692)"/>
    </g>
</svg>
