<svg xmlns="http://www.w3.org/2000/svg" width="20" height="18.453" viewBox="0 0 20 18.453">
    <defs>
        <style>
            .cls-1{fill:#4a4a4a}
        </style>
    </defs>
    <g id="my_friend" transform="translate(2.5 -17.5)">
        <g id="Group_74" transform="translate(7.016 17.5)">
            <g id="Group_73">
                <g id="Group_72">
                    <path id="Path_78" d="M244.457 17.984v2.3a.484.484 0 0 1-.967 0v-2.3a.484.484 0 0 1 .967 0z" class="cls-1" transform="translate(-243.49 -17.5)"/>
                </g>
            </g>
        </g>
        <g id="Group_77" transform="translate(3.625 19.765)">
            <g id="Group_76">
                <g id="Group_75">
                    <path id="Path_79" d="M157.588 77.808a.483.483 0 0 1-.684 0l-.926-.925a.483.483 0 0 1 .684-.684l.926.925a.484.484 0 0 1 0 .684z" class="cls-1" transform="translate(-155.838 -76.059)"/>
                </g>
            </g>
        </g>
        <g id="Group_80" transform="translate(9.424 19.766)">
            <g id="Group_79">
                <g id="Group_78">
                    <path id="Path_80" d="M307.689 76.562a.483.483 0 0 1-.141.342l-.984.985a.484.484 0 0 1-.684-.684l.984-.985a.483.483 0 0 1 .825.342z" class="cls-1" transform="translate(-305.739 -76.079)"/>
                </g>
            </g>
        </g>
        <g id="Group_83" transform="translate(-2.5 23.313)">
            <g id="Group_82">
                <g id="Group_81">
                    <path id="Path_81" d="M14.869 172.163h-.127a2.04 2.04 0 0 0 .318-1.1v-.546a2.067 2.067 0 1 0-4.135 0v.191l-2.745-2.746a.685.685 0 0 0-.68-.17.684.684 0 0 0-.68.17l-2.745 2.745v-.191a2.067 2.067 0 1 0-4.135 0v.546a2.044 2.044 0 0 0 .318 1.1H.131a2.633 2.633 0 0 0-2.631 2.632v5.126a.484.484 0 0 0 .484.484h1.634a.466.466 0 0 0 .111-.013.472.472 0 0 0 .111.013h4.333a.484.484 0 0 0 .484-.484v-1.32a.484.484 0 1 0-.967 0v.832H.324v-4.311a.484.484 0 0 0-.484-.484.484.484 0 0 0-.484.484v4.311h-.89v-4.642a1.665 1.665 0 0 1 1.665-1.66h2.688a.478.478 0 0 0 .338-.138L7 169.151a4.169 4.169 0 0 1-.694 1.943l-2.532 3.76a.484.484 0 0 0-.082.27v.424a.484.484 0 1 0 .967 0v-.276l2.45-3.638a5.179 5.179 0 0 0 .394-.7 5.175 5.175 0 0 0 .394.7l2.45 3.638v4.647a.484.484 0 0 0 .484.484h4.329a.474.474 0 0 0 .111-.013.468.468 0 0 0 .111.013h1.634a.484.484 0 0 0 .484-.484v-5.126a2.633 2.633 0 0 0-2.631-2.63zm-11.762-1.1a1.1 1.1 0 0 1-2.2 0v-.546a1.1 1.1 0 1 1 2.2 0zm8.786-.546a1.1 1.1 0 1 1 2.2 0v.546a1.1 1.1 0 0 1-2.2 0zm4.64 8.919h-.89v-2.766a.484.484 0 0 0-.967 0v2.766H11.31v-4.311a.484.484 0 0 0-.082-.27l-2.528-3.76a4.176 4.176 0 0 1-.7-1.944l3.837 3.837.02.018a.483.483 0 0 0 .322.123h2.689a1.665 1.665 0 0 1 1.663 1.663z" class="cls-1" transform="translate(2.5 -167.763)"/>
                </g>
            </g>
        </g>
        <g id="Group_86" transform="translate(14.676 30.191)">
            <g id="Group_85">
                <g id="Group_84">
                    <path id="Path_82" d="M442.467 346.034a.483.483 0 1 1-.141-.342.487.487 0 0 1 .141.342z" class="cls-1" transform="translate(-441.5 -345.55)"/>
                </g>
            </g>
        </g>
        <g id="Group_89" transform="translate(3.69 32.239)">
            <g id="Group_88">
                <g id="Group_87">
                    <path id="Path_83" d="M158.467 398.984a.483.483 0 1 1-.142-.342.488.488 0 0 1 .142.342z" class="cls-1" transform="translate(-157.5 -398.5)"/>
                </g>
            </g>
        </g>
    </g>
</svg>
