<svg xmlns="http://www.w3.org/2000/svg" width="18" height="18.018" viewBox="0 0 18 18.018">
    <defs>
        <style>
            .cls-1{fill:#4a4a4a}
        </style>
    </defs>
    <g id="orders" transform="translate(-.251)">
        <path id="Path_63" d="M60.976 142.489a.543.543 0 0 0 .751-.044l1.321-1.507a.527.527 0 0 0-.794-.694l-.968 1.1-.259-.235a.527.527 0 1 0-.708.781z" class="cls-1" transform="translate(-57.789 -135.138)"/>
        <path id="Path_64" d="M170.359 182.345h-3.044a.527.527 0 1 0 0 1.054h3.044a.527.527 0 1 0 0-1.054z" class="cls-1" transform="translate(-160.681 -175.933)"/>
        <path id="Path_65" d="M66.279 244.5h-6.838a.527.527 0 1 0 0 1.054h6.837a.527.527 0 1 0 0-1.054z" class="cls-1" transform="translate(-56.6 -235.903)"/>
        <path id="Path_66" d="M60.976 314.269a.543.543 0 0 0 .751-.044l1.321-1.507a.527.527 0 0 0-.794-.694l-.968 1.1-.259-.235a.527.527 0 1 0-.708.782z" class="cls-1" transform="translate(-57.789 -300.878)"/>
        <path id="Path_67" d="M170.359 354.07h-3.044a.527.527 0 1 0 0 1.054h3.044a.527.527 0 1 0 0-1.054z" class="cls-1" transform="translate(-160.681 -341.619)"/>
        <path id="Path_68" d="M66.279 415.337h-6.838a.527.527 0 1 0 0 1.054h6.837a.527.527 0 1 0 0-1.054z" class="cls-1" transform="translate(-56.6 -400.731)"/>
        <path id="Path_69" d="M16.964 0H6.92a.921.921 0 0 0-.32.063 1.734 1.734 0 0 0-.329-.031A1.719 1.719 0 0 0 4.644 1.2h-.563a.753.753 0 0 0-.75.7H1.47A1.22 1.22 0 0 0 .251 3.116V16.8a1.22 1.22 0 0 0 1.219 1.218h9.6a1.221 1.221 0 0 0 1.177-.9h4.8a1.308 1.308 0 0 0 1.2-1.285V1.285A1.287 1.287 0 0 0 16.964 0zM4.383 2.25h.7a.527.527 0 0 0 .527-.516.662.662 0 0 1 1.323 0 .527.527 0 0 0 .527.516h.7v.58H4.383zm6.852 14.55a.164.164 0 0 1-.164.164H1.47a.164.164 0 0 1-.164-.164V3.116a.164.164 0 0 1 .164-.164h1.858v.112a.822.822 0 0 0 .821.82h4.243a.822.822 0 0 0 .821-.82v-.112h1.858a.164.164 0 0 1 .164.164zm5.961-.968a.231.231 0 0 1-.2.23H12.29V3.116A1.22 1.22 0 0 0 11.071 1.9h-1.86a.76.76 0 0 0-.756-.7H7.9c-.016-.048-.036-.1-.056-.142h9.123a.232.232 0 0 1 .232.231z" class="cls-1"/>
    </g>
</svg>
