<svg xmlns="http://www.w3.org/2000/svg" width="16" height="16" viewBox="0 0 16 16">
    <defs>
        <style>
            .cls-1{fill:#fff}
        </style>
    </defs>
    <g id="orders_active" transform="translate(0 -.007)">
        <g id="Group_589" transform="translate(3.003 .007)">
            <path id="Path_768" d="M201.956 15.639a.734.734 0 0 0 .535-.24.752.752 0 0 0 .189-.493V.745a.739.739 0 0 0-.739-.738H192.7a1.663 1.663 0 0 1 .409.65h.545a.741.741 0 0 1 .738.683h1.817a1.189 1.189 0 0 1 1.191 1.187v13.117l4.554-.005z" class="cls-1" transform="translate(-189.684 -.007)"/>
            <path id="Path_769" d="M98.554 18.083a.647.647 0 0 0-1.294 0 .514.514 0 0 1-.514.5h-.683v.562h3.688v-.562h-.683a.514.514 0 0 1-.514-.5z" class="cls-1" transform="translate(-96.064 -16.909)"/>
        </g>
        <path id="Path_770" d="M9.532 75.559H7.718v.108a.8.8 0 0 1-.8.8H2.776a.8.8 0 0 1-.8-.8v-.108H.161a.16.16 0 0 0-.161.158v13.321a.16.16 0 0 0 .161.158h9.371a.16.16 0 0 0 .161-.158V75.717a.16.16 0 0 0-.161-.158zm-8.4 3.006a.517.517 0 0 1 .731-.037l.254.23.949-1.084a.517.517 0 0 1 .778.681l-1.3 1.48a.532.532 0 0 1-.736.043l-.642-.578a.517.517 0 0 1-.037-.731zm7.045 9.469h-6.7a.517.517 0 0 1 0-1.034h6.7a.517.517 0 0 1 0 1.034zM1.13 84.495a.517.517 0 0 1 .731-.037l.254.23.949-1.088a.517.517 0 0 1 .778.681l-1.3 1.48a.532.532 0 0 1-.736.043l-.644-.583a.517.517 0 0 1-.037-.731zm7.045 1.425H5.267a.517.517 0 0 1 0-1.034h2.908a.517.517 0 0 1 0 1.034zm0-3.782h-6.7a.517.517 0 1 1 0-1.034h6.7a.517.517 0 1 1 0 1.034zm0-2.145H5.267a.517.517 0 1 1 0-1.034h2.908a.517.517 0 1 1 0 1.034z" class="cls-1" transform="translate(0 -73.19)"/>
    </g>
</svg>
