<svg xmlns="http://www.w3.org/2000/svg" width="60" height="60" viewBox="0 0 60 60">
    <defs>
        <style>
            .cls-2{fill:#66180d;fill-rule:evenodd}
        </style>
    </defs>
    <g id="pant" transform="translate(-267 -214)">
        <circle id="Ellipse_15" cx="30" cy="30" r="30" fill="#fff" transform="translate(267 214)"/>
        <g id="Group_170" transform="translate(286.513 226.927)">
            <path id="d" d="M18.639.075c.508-.011.908-.019 1.011.853l.178 1.172H3.126L3.3.928c.1-.872.5-.863 1.011-.853 4.771.099 9.561.099 14.328 0z" class="cls-2" transform="translate(-1.48)"/>
            <path id="c" d="M2.267 5.733l-.584 3.862c2.122-.039 5.357-1.949 6.275-3.844z" class="cls-2" transform="translate(-.67 -3.174)"/>
            <path id="b" d="M6.562 5.763A6.369 6.369 0 0 1 4.295 8.4a5.852 5.852 0 0 1-3.257 1.006c-.576 3.648-.7 24.547-.375 28.18a13 13 0 0 0 8.279 0L10 14.515l1.056 23.072a13 13 0 0 0 8.279 0c.325-3.633.2-24.532-.368-28.136a6.074 6.074 0 0 1-5.416-3.687z" class="cls-2" transform="translate(0 -3.19)"/>
            <path id="a" d="M29.583 5.772c.917 1.9 3.633 4.035 5.756 4.073l-.628-4.112z" class="cls-2" transform="translate(-16.313 -3.174)"/>
        </g>
    </g>
</svg>
