<svg xmlns="http://www.w3.org/2000/svg" width="12.667" height="22.2" viewBox="0 0 12.667 22.2">
    <defs>
        <style>
            .cls-1{fill:#bababa;stroke:#bababa;stroke-width:.2px}
        </style>
    </defs>
    <g id="phone_number" transform="translate(-110.833 .1)">
        <g id="Group_74" transform="translate(114.966 1.1)">
            <g id="Group_73">
                <path id="Path_62" d="M208.834 25.6h-3.667a.367.367 0 1 0 0 .733h3.667a.367.367 0 1 0 0-.733z" class="cls-1" transform="translate(-204.801 -25.6)"/>
            </g>
        </g>
        <g id="Group_76" transform="translate(120.833 1.1)">
            <g id="Group_75">
                <path id="Path_63" d="M342.067 25.6h-.367a.367.367 0 1 0 0 .733h.367a.367.367 0 1 0 0-.733z" class="cls-1" transform="translate(-341.334 -25.6)"/>
            </g>
        </g>
        <g id="Group_78" transform="translate(115.7 18.7)">
            <g id="Group_77">
                <path id="Path_64" d="M223.789 435.2h-.91a1.013 1.013 0 0 0-1.012 1.012v.177a1.013 1.013 0 0 0 1.011 1.011h.91a1.013 1.013 0 0 0 1.012-1.011v-.177a1.013 1.013 0 0 0-1.011-1.012zm.278 1.189a.278.278 0 0 1-.278.278h-.91a.278.278 0 0 1-.278-.278v-.177a.278.278 0 0 1 .278-.278h.91a.278.278 0 0 1 .278.278z" class="cls-1" transform="translate(-221.867 -435.2)"/>
            </g>
        </g>
        <g id="Group_80" transform="translate(110.933)">
            <g id="Group_79">
                <path id="Path_65" d="M122.075 0h-9.816a1.327 1.327 0 0 0-1.326 1.326v19.349A1.327 1.327 0 0 0 112.259 22h9.816a1.327 1.327 0 0 0 1.326-1.325V1.326A1.327 1.327 0 0 0 122.075 0zm.592 20.675a.593.593 0 0 1-.592.592h-9.816a.593.593 0 0 1-.592-.592V1.326a.593.593 0 0 1 .592-.592h9.816a.593.593 0 0 1 .592.592v19.349z" class="cls-1" transform="translate(-110.933)"/>
            </g>
        </g>
        <g id="Group_82" transform="translate(110.933 2.2)">
            <g id="Group_81">
                <path id="Path_66" d="M123.034 51.2H111.3a.367.367 0 0 0-.367.367v15.4a.367.367 0 0 0 .367.367h11.733a.367.367 0 0 0 .367-.367v-15.4a.367.367 0 0 0-.366-.367zm-.367 15.4h-11V51.933h11z" class="cls-1" transform="translate(-110.934 -51.2)"/>
            </g>
        </g>
    </g>
</svg>
