<svg xmlns="http://www.w3.org/2000/svg" width="16" height="16.003" viewBox="0 0 16 16.003">
    <defs>
        <style>
            .cls-1{fill:#4a4a4a}
        </style>
    </defs>
    <g id="settings" transform="translate(-.05)">
        <g id="Group_130" transform="translate(.05)">
            <g id="Group_129">
                <path id="Path_95" d="M11.27 2.346a6.5 6.5 0 0 0-1.493-.621v-.532A1.2 1.2 0 0 0 8.584 0H7.522A1.2 1.2 0 0 0 6.33 1.193v.533a6.354 6.354 0 0 0-1.493.621l-.379-.377a1.191 1.191 0 0 0-1.686 0l-.751.751a1.191 1.191 0 0 0 0 1.686l.376.376a6.5 6.5 0 0 0-.621 1.493h-.533A1.2 1.2 0 0 0 .05 7.469v1.062a1.2 1.2 0 0 0 1.193 1.193h.533a6.354 6.354 0 0 0 .624 1.493l-.38.383a1.2 1.2 0 0 0 0 1.686l.751.751a1.191 1.191 0 0 0 1.686 0l.376-.376a6.5 6.5 0 0 0 1.493.621v.533A1.2 1.2 0 0 0 7.519 16h1.062a1.2 1.2 0 0 0 1.193-1.193v-.533a6.354 6.354 0 0 0 1.493-.621l.376.376a1.191 1.191 0 0 0 1.686 0l.751-.751a1.2 1.2 0 0 0 0-1.686l-.38-.372a6.5 6.5 0 0 0 .621-1.493h.533a1.2 1.2 0 0 0 1.196-1.193V7.472a1.2 1.2 0 0 0-1.193-1.192h-.533a6.354 6.354 0 0 0-.624-1.493l.376-.376a1.2 1.2 0 0 0 0-1.686l-.751-.751a1.191 1.191 0 0 0-1.686 0zm1.17.415a.069.069 0 0 1 .1 0l.751.751a.069.069 0 0 1 0 .1L12.6 4.3a.559.559 0 0 0-.069.709 5.3 5.3 0 0 1 .8 1.934.56.56 0 0 0 .549.451h.977a.073.073 0 0 1 .072.072v1.065a.073.073 0 0 1-.072.072h-.977a.56.56 0 0 0-.549.451 5.331 5.331 0 0 1-.8 1.934.559.559 0 0 0 .069.709l.689.689a.069.069 0 0 1 0 .1l-.751.751a.072.072 0 0 1-.1 0l-.689-.689a.559.559 0 0 0-.709-.069 5.321 5.321 0 0 1-1.934.8.56.56 0 0 0-.451.549v.977a.073.073 0 0 1-.072.072H7.522a.073.073 0 0 1-.072-.072v-.977a.56.56 0 0 0-.45-.546 5.354 5.354 0 0 1-1.934-.8.567.567 0 0 0-.31-.095.559.559 0 0 0-.4.163l-.689.689a.069.069 0 0 1-.1 0l-.751-.751a.069.069 0 0 1 0-.1l.689-.689a.559.559 0 0 0 .069-.709 5.321 5.321 0 0 1-.8-1.934.56.56 0 0 0-.548-.456h-.983a.073.073 0 0 1-.072-.072V7.469a.073.073 0 0 1 .072-.069h.977a.56.56 0 0 0 .549-.451 5.354 5.354 0 0 1 .8-1.934A.564.564 0 0 0 3.5 4.3l-.689-.689a.069.069 0 0 1-.02-.052.066.066 0 0 1 .02-.049l.751-.751a.069.069 0 0 1 .1 0l.689.689a.559.559 0 0 0 .709.069A5.321 5.321 0 0 1 7 2.718a.56.56 0 0 0 .451-.549v-.976a.073.073 0 0 1 .072-.072h1.058a.073.073 0 0 1 .072.072v.977a.56.56 0 0 0 .451.549 5.354 5.354 0 0 1 1.934.8.564.564 0 0 0 .709-.069z" class="cls-1" transform="translate(-.05)"/>
                <path id="Path_96" d="M148.6 145.3a3.254 3.254 0 1 0 3.254 3.254 3.259 3.259 0 0 0-3.254-3.254zm0 5.388a2.134 2.134 0 1 1 2.134-2.134 2.136 2.136 0 0 1-2.134 2.134z" class="cls-1" transform="translate(-140.603 -140.553)"/>
            </g>
        </g>
    </g>
</svg>
