<svg xmlns="http://www.w3.org/2000/svg" width="60" height="60" viewBox="0 0 60 60">
    <g transform="translate(-267 -214)">
        <circle cx="30" cy="30" r="30" fill="#fff" transform="translate(267 214)"/>
        <path fill="#66180d" fill-rule="evenodd" d="M-2.715 10.638l2.824 2.826a1.974 1.974 0 0 0 2.578.164v13.3a2 2 0 0 0 1.993 2h15.975a2 2 0 0 0 2-2v-13.3a1.971 1.971 0 0 0 2.576-.164l2.822-2.826a2.008 2.008 0 0 0 0-2.83L22.4 2.15c-.05-.052-.123-.072-.177-.118a5.559 5.559 0 0 0-1.572-1.1l-3.99-2c0 1.1-1.793 2-3.995 2s-4-.894-4-2L4.68.931a5.565 5.565 0 0 0-1.568 1.1c-.054.046-.124.066-.176.118l-5.651 5.66a2 2 0 0 0 0 2.829z" transform="translate(284.3 230.067)"/>
    </g>
</svg>
