<svg xmlns="http://www.w3.org/2000/svg" width="16.4" height="16.4" viewBox="0 0 16.4 16.4">
    <defs>
        <style>
            .cls-1{fill:#4a4a4a;stroke:#4a4a4a;stroke-width:.4px}
        </style>
    </defs>
    <g id="wardrobe_unselected" transform="translate(-1.8 -1.8)">
        <path id="Path_134" d="M17.733 2H2.267A.267.267 0 0 0 2 2.267v15.466a.267.267 0 0 0 .267.267h15.466a.267.267 0 0 0 .267-.267V2.267A.267.267 0 0 0 17.733 2zm-8.267.533H16.4v.8h-6.133v-.266h-.534v.267h-.266zm0 1.333h.267V4.4h-.266zm0 1.067h1.067v.533H9.467zM9.467 6h.859a.8.8 0 0 1-.592.267.754.754 0 0 1-.267-.053zm0 .771a1.484 1.484 0 0 0 .267.029 1.333 1.333 0 0 0 1.333-1.333v-.534h2.248l1.28 2.133H13.32l-.453-.517a.26.26 0 0 0-.293-.075.265.265 0 0 0-.173.248V11.6H9.467zM2.533 2.533h6.4V14.8h-6.4zm7.2 14.933h-7.2v-2.133h7.2zm7.733 0h-7.2v-2.133h7.2zM14 13.733a.267.267 0 0 1 0-.533h2.4a.267.267 0 0 1 0 .533.267.267 0 1 0 0 .533.267.267 0 0 1 0 .533H14a.267.267 0 1 1 0-.533h.8v-.533zm3.467 1.067h-.315a.8.8 0 0 0 .048-.267.791.791 0 0 0-.205-.533.791.791 0 0 0 .205-.533.8.8 0 0 0-.8-.8H14a.8.8 0 0 0-.8.8.791.791 0 0 0 .205.533.791.791 0 0 0-.205.533.8.8 0 0 0 .048.267H9.467v-2.667h3.2a.267.267 0 0 0 .267-.267V7.435l.066.074a.262.262 0 0 0 .2.091h1.867a.267.267 0 0 0 .229-.4L13.7 4.531a.264.264 0 0 0-.229-.131h-3.2v-.533h6.4a.267.267 0 0 0 .267-.267V2.533h.533z" class="cls-1"/>
        <path id="Path_135" d="M20.8 20a.8.8 0 0 0-.8.8v1.6a.8.8 0 0 0 1.6 0v-1.6a.8.8 0 0 0-.8-.8zm.267 2.4a.267.267 0 0 1-.533 0v-1.6a.267.267 0 1 1 .533 0z" class="cls-1" transform="translate(-13.2 -13.2)"/>
        <path id="Path_136" d="M13 55h1.867v.533H13z" class="cls-1" transform="translate(-8.067 -38.867)"/>
        <path id="Path_137" d="M44 55h1.867v.533H44z" class="cls-1" transform="translate(-30.8 -38.867)"/>
    </g>
</svg>
